<svg xmlns="http://www.w3.org/2000/svg" width="33.74" height="46.685" viewBox="0 0 33.74 46.685"><g transform="translate(-422.632 -261.691)"><path d="M449.389,308.376h-.055c-5.173-.045-14.694-7.046-20.622-17.4l-.226-.391h0c-5.929-10.351-7.154-22.1-4.577-26.588a4.149,4.149,0,0,1,3.627-2.31c.037,0,.07,0,.106,0l5.969.271a3.591,3.591,0,0,1,2.9,1.85c.026.045.052.1.075.145a5.1,5.1,0,0,1,.573,2.732c.011.376.025.851.057,1.469.132,1.142.305,2.553.482,3.482a3.763,3.763,0,0,1-2.528,4.369l-1.53.408c.033.865.781,3.363,2.873,7.474.4.784.749,1.426.967,1.808s.594,1,1.071,1.748c2.47,3.855,4.238,5.763,4.976,6.245l1.125-1.087a3.764,3.764,0,0,1,5.06.008c.717.628,1.845,1.49,2.764,2.181.516.34.919.591,1.238.791a5.078,5.078,0,0,1,2.066,1.875c.02.028.038.056.055.083a3.613,3.613,0,0,1,.174,3.474l-2.795,5.3c-.017.03-.033.062-.052.092A4.133,4.133,0,0,1,449.389,308.376ZM431.957,288.6l.119.2.057.1.05.09c6.316,11.027,15.836,16.129,17.552,15.348l2.573-4.882a6.54,6.54,0,0,0-.713-.479c-.352-.219-.8-.5-1.376-.879-.034-.023-.069-.046-.1-.071-.94-.707-2.109-1.6-2.931-2.307l-.875.864a4.031,4.031,0,0,1-2.923,1.167c-.9-.015-3.021-.05-8.211-8.151-.52-.817-.93-1.5-1.169-1.911s-.621-1.122-1.061-1.981c-4.365-8.577-3.323-10.426-2.878-11.215a4.067,4.067,0,0,1,2.48-1.927l1.189-.317c-.2-1.076-.372-2.53-.507-3.7,0-.04-.007-.081-.009-.121-.037-.692-.052-1.219-.064-1.634-.01-.359-.02-.73-.042-.856l-5.555-.252c-1.519.952-1.964,11.807,4.395,22.907Zm22.142,9.96h0ZM443.7,293.792Zm-10.06-17.561" fill="#e11383"/></g></svg>